<svg xmlns="http://www.w3.org/2000/svg" viewBox="0 0 325.93 52.36"><defs><style>.cls-1,.cls-5{fill:#282c75;}.cls-2{fill:#6e6e72;}.cls-2,.cls-3,.cls-4,.cls-5{fill-rule:evenodd;}.cls-3{fill:#a2a2aa;}.cls-4{fill:#fed62e;}</style></defs><g id="Слой_2" data-name="Слой 2"><g id="Слой_1-2" data-name="Слой 1"><path class="cls-1" d="M208.73,0V52.36H193.92V31.94H173.73V52.36H158.92V0h14.81V19.67h20.19V0Z"/><path class="cls-1" d="M255.48,2.36a18.31,18.31,0,0,1,8.08,6.73,18.46,18.46,0,0,1,2.84,10.28,18.31,18.31,0,0,1-2.84,10.25,18.43,18.43,0,0,1-8.08,6.69,29.89,29.89,0,0,1-12.34,2.36H234V52.36H219.2V0h23.94A29.89,29.89,0,0,1,255.48,2.36ZM249.12,25a7,7,0,0,0,2.32-5.65,7.11,7.11,0,0,0-2.32-5.68q-2.33-2-6.88-2H234V27h8.23Q246.8,27,249.12,25Z"/><path class="cls-1" d="M293.77,33.36l-5.53,5.91V52.36H273.58V0h14.66V21.76L308.51,0h16.3L303.42,23.19l22.51,29.17h-17.2Z"/><g id="Слой_1-3" data-name="Слой_1"><g id="_2387181321744" data-name=" 2387181321744"><polygon class="cls-2" points="77.11 45.6 88.48 52.27 118.98 21.85 109.83 12.7 77.11 45.6"/><polygon class="cls-3" points="149.31 52.27 131.48 52.36 100.76 21.86 109.83 12.7 149.31 52.27"/><polygon class="cls-4" points="73.73 45.6 85.11 52.27 115.61 21.85 106.46 12.7 73.73 45.6"/><polygon class="cls-4" points="145.94 52.27 128.11 52.36 97.39 21.86 106.46 12.7 145.94 52.27"/><polygon class="cls-2" points="4.5 52.24 28.27 52.24 68.54 12.08 56.46 0 4.5 52.24"/><polygon class="cls-3" points="108.58 52.24 85.03 52.36 44.48 12.1 56.46 0 108.58 52.24"/><polygon class="cls-5" points="104.08 52.24 80.54 52.36 39.99 12.1 51.96 0 104.08 52.24"/><polygon class="cls-5" points="0 52.24 23.77 52.24 64.04 12.08 51.96 0 0 52.24"/></g></g></g></g></svg>